<svg xmlns="http://www.w3.org/2000/svg" width="24" height="24" viewBox="0 0 24 24" fill="none">
  <path d="M12.7101 14.8299L16.9501 10.5899C17.0438 10.497 17.1182 10.3864 17.1689 10.2645C17.2197 10.1427 17.2458 10.012 17.2458 9.87994C17.2458 9.74793 17.2197 9.61723 17.1689 9.49537C17.1182 9.37351 17.0438 9.26291 16.9501 9.16994C16.7627 8.98369 16.5092 8.87915 16.2451 8.87915C15.9809 8.87915 15.7274 8.98369 15.5401 9.16994L12.0001 12.7099L8.46005 9.16994C8.27269 8.98369 8.01924 8.87915 7.75505 8.87915C7.49086 8.87915 7.23741 8.98369 7.05005 9.16994C6.95737 9.26338 6.88404 9.3742 6.83428 9.49604C6.78452 9.61787 6.75929 9.74834 6.76005 9.87994C6.75929 10.0115 6.78452 10.142 6.83428 10.2638C6.88404 10.3857 6.95737 10.4965 7.05005 10.5899L11.2901 14.8299C11.383 14.9237 11.4936 14.9981 11.6155 15.0488C11.7373 15.0996 11.868 15.1257 12.0001 15.1257C12.1321 15.1257 12.2628 15.0996 12.3846 15.0488C12.5065 14.9981 12.6171 14.9237 12.7101 14.8299Z" fill="#2F3037"/>
</svg>